<svg width="376" height="178" viewBox="0 0 376 178" fill="none" xmlns="http://www.w3.org/2000/svg">
<path d="M27.216 29.92C27.216 28.336 25.92 27.04 24.336 27.04H7.2C5.616 27.04 4.32 28.336 4.32 29.92V171.04C4.32 172.624 5.616 173.92 7.2 173.92H57.024C58.608 173.92 59.904 172.624 59.904 171.04V156.784C59.904 155.2 58.608 153.904 57.024 153.904H27.216V29.92ZM35.82 145.12C35.82 146.704 37.116 148 38.7 148H80.748C82.332 148 83.628 146.704 83.628 145.12V132.304C83.484 130.72 82.188 129.424 80.604 129.424H58.716V95.296H73.548C75.132 95.296 76.428 94 76.428 92.416V78.304C76.428 76.72 75.132 75.424 73.548 75.424H58.716V45.616H80.604C82.188 45.616 83.484 44.32 83.484 42.736V29.92C83.484 28.192 82.188 27.04 80.748 27.04H38.7C37.116 27.04 35.82 28.336 35.82 29.92V145.12ZM95.0906 27.04C93.5066 27.04 92.2106 28.336 92.2106 29.92V145.12C92.2106 146.704 93.5066 148 95.0906 148H112.227C113.811 148 115.107 146.704 115.107 145.12V29.92C115.107 28.336 113.811 27.04 112.227 27.04H95.0906ZM95.0546 4C93.4706 4 92.1746 5.29599 92.1746 6.88V19.696C92.1746 21.28 93.4706 22.576 95.0546 22.576H123.711V145.12C123.711 146.704 125.007 148 126.591 148H143.583C145.167 148 146.463 146.704 146.463 145.12V22.576H175.119C176.703 22.576 177.999 21.28 177.999 19.696V6.88C177.999 5.29599 176.703 4 175.119 4H95.0546ZM165.147 27.04C162.555 27.04 155.211 27.184 155.211 37.12V145.12C155.211 146.704 156.507 148 158.091 148H175.227C176.811 148 178.107 146.704 178.107 145.12V105.376H185.019V145.12C185.019 146.704 186.315 148 187.899 148H205.035C206.619 148 207.915 146.704 207.915 145.12V36.544C207.915 27.184 200.859 27.04 198.267 27.04H165.147ZM178.107 45.616H185.019V86.944H178.107V45.616Z" fill="#873EFF"/>
<path d="M27.216 153.904H23.216V157.904H27.216V153.904ZM31.216 29.92C31.216 26.1269 28.1291 23.04 24.336 23.04V31.04C23.7109 31.04 23.216 30.5451 23.216 29.92H31.216ZM24.336 23.04H7.2V31.04H24.336V23.04ZM7.2 23.04C3.40686 23.04 0.32 26.1269 0.32 29.92H8.32C8.32 30.5451 7.82514 31.04 7.2 31.04V23.04ZM0.32 29.92V171.04H8.32V29.92H0.32ZM0.32 171.04C0.32 174.833 3.40686 177.92 7.2 177.92V169.92C7.82514 169.92 8.32 170.415 8.32 171.04H0.32ZM7.2 177.92H57.024V169.92H7.2V177.92ZM57.024 177.92C60.8171 177.92 63.904 174.833 63.904 171.04H55.904C55.904 170.415 56.3989 169.92 57.024 169.92V177.92ZM63.904 171.04V156.784H55.904V171.04H63.904ZM63.904 156.784C63.904 152.991 60.8171 149.904 57.024 149.904V157.904C56.3989 157.904 55.904 157.409 55.904 156.784H63.904ZM57.024 149.904H27.216V157.904H57.024V149.904ZM31.216 153.904V29.92H23.216V153.904H31.216ZM83.628 132.304H87.628V132.123L87.6116 131.942L83.628 132.304ZM58.716 129.424H54.716V133.424H58.716V129.424ZM58.716 95.296V91.296H54.716V95.296H58.716ZM58.716 75.424H54.716V79.424H58.716V75.424ZM58.716 45.616V41.616H54.716V45.616H58.716ZM31.82 145.12C31.82 148.913 34.9069 152 38.7 152V144C39.3251 144 39.82 144.495 39.82 145.12H31.82ZM38.7 152H80.748V144H38.7V152ZM80.748 152C84.5411 152 87.628 148.913 87.628 145.12H79.628C79.628 144.495 80.1229 144 80.748 144V152ZM87.628 145.12V132.304H79.628V145.12H87.628ZM87.6116 131.942C87.2991 128.505 84.4586 125.424 80.604 125.424V133.424C80.273 133.424 80.0179 133.283 79.8759 133.146C79.7428 133.017 79.6613 132.852 79.6444 132.666L87.6116 131.942ZM80.604 125.424H58.716V133.424H80.604V125.424ZM62.716 129.424V95.296H54.716V129.424H62.716ZM58.716 99.296H73.548V91.296H58.716V99.296ZM73.548 99.296C77.3411 99.296 80.428 96.2091 80.428 92.416H72.428C72.428 91.7909 72.9229 91.296 73.548 91.296V99.296ZM80.428 92.416V78.304H72.428V92.416H80.428ZM80.428 78.304C80.428 74.5109 77.3411 71.424 73.548 71.424V79.424C72.9229 79.424 72.428 78.9291 72.428 78.304H80.428ZM73.548 71.424H58.716V79.424H73.548V71.424ZM62.716 75.424V45.616H54.716V75.424H62.716ZM58.716 49.616H80.604V41.616H58.716V49.616ZM80.604 49.616C84.3971 49.616 87.484 46.5291 87.484 42.736H79.484C79.484 42.1109 79.9789 41.616 80.604 41.616V49.616ZM87.484 42.736V29.92H79.484V42.736H87.484ZM87.484 29.92C87.484 25.9829 84.3971 23.04 80.748 23.04V31.04C80.3951 31.04 80.0652 30.898 79.8276 30.6604C79.5677 30.4005 79.484 30.0973 79.484 29.92H87.484ZM80.748 23.04H38.7V31.04H80.748V23.04ZM38.7 23.04C34.9069 23.04 31.82 26.1269 31.82 29.92H39.82C39.82 30.5451 39.3251 31.04 38.7 31.04V23.04ZM31.82 29.92V145.12H39.82V29.92H31.82ZM95.0906 23.04C91.2975 23.04 88.2106 26.1269 88.2106 29.92H96.2106C96.2106 30.5451 95.7158 31.04 95.0906 31.04V23.04ZM88.2106 29.92V145.12H96.2106V29.92H88.2106ZM88.2106 145.12C88.2106 148.913 91.2975 152 95.0906 152V144C95.7158 144 96.2106 144.495 96.2106 145.12H88.2106ZM95.0906 152H112.227V144H95.0906V152ZM112.227 152C116.02 152 119.107 148.913 119.107 145.12H111.107C111.107 144.495 111.601 144 112.227 144V152ZM119.107 145.12V29.92H111.107V145.12H119.107ZM119.107 29.92C119.107 26.1269 116.02 23.04 112.227 23.04V31.04C111.601 31.04 111.107 30.5451 111.107 29.92H119.107ZM112.227 23.04H95.0906V31.04H112.227V23.04ZM123.711 22.576H127.711V18.576H123.711V22.576ZM146.463 22.576V18.576H142.463V22.576H146.463ZM95.0546 0C91.2615 0 88.1746 3.08684 88.1746 6.88H96.1746C96.1746 7.50514 95.6798 8 95.0546 8V0ZM88.1746 6.88V19.696H96.1746V6.88H88.1746ZM88.1746 19.696C88.1746 23.4891 91.2615 26.576 95.0546 26.576V18.576C95.6798 18.576 96.1746 19.0709 96.1746 19.696H88.1746ZM95.0546 26.576H123.711V18.576H95.0546V26.576ZM119.711 22.576V145.12H127.711V22.576H119.711ZM119.711 145.12C119.711 148.913 122.797 152 126.591 152V144C127.216 144 127.711 144.495 127.711 145.12H119.711ZM126.591 152H143.583V144H126.591V152ZM143.583 152C147.376 152 150.463 148.913 150.463 145.12H142.463C142.463 144.495 142.957 144 143.583 144V152ZM150.463 145.12V22.576H142.463V145.12H150.463ZM146.463 26.576H175.119V18.576H146.463V26.576ZM175.119 26.576C178.912 26.576 181.999 23.4891 181.999 19.696H173.999C173.999 19.0709 174.493 18.576 175.119 18.576V26.576ZM181.999 19.696V6.88H173.999V19.696H181.999ZM181.999 6.88C181.999 3.08685 178.912 0 175.119 0V8C174.493 8 173.999 7.50513 173.999 6.88H181.999ZM175.119 0H95.0546V8H175.119V0ZM178.107 105.376V101.376H174.107V105.376H178.107ZM185.019 105.376H189.019V101.376H185.019V105.376ZM178.107 45.616V41.616H174.107V45.616H178.107ZM185.019 45.616H189.019V41.616H185.019V45.616ZM185.019 86.944V90.944H189.019V86.944H185.019ZM178.107 86.944H174.107V90.944H178.107V86.944ZM165.147 23.04C163.85 23.04 160.359 23.0246 157.17 24.9114C153.583 27.0338 151.211 31.0009 151.211 37.12H159.211C159.211 33.3031 160.511 32.2302 161.243 31.7966C162.374 31.1274 163.852 31.04 165.147 31.04V23.04ZM151.211 37.12V145.12H159.211V37.12H151.211ZM151.211 145.12C151.211 148.913 154.297 152 158.091 152V144C158.716 144 159.211 144.495 159.211 145.12H151.211ZM158.091 152H175.227V144H158.091V152ZM175.227 152C179.02 152 182.107 148.913 182.107 145.12H174.107C174.107 144.495 174.601 144 175.227 144V152ZM182.107 145.12V105.376H174.107V145.12H182.107ZM178.107 109.376H185.019V101.376H178.107V109.376ZM181.019 105.376V145.12H189.019V105.376H181.019ZM181.019 145.12C181.019 148.913 184.105 152 187.899 152V144C188.524 144 189.019 144.495 189.019 145.12H181.019ZM187.899 152H205.035V144H187.899V152ZM205.035 152C208.828 152 211.915 148.913 211.915 145.12H203.915C203.915 144.495 204.409 144 205.035 144V152ZM211.915 145.12V36.544H203.915V145.12H211.915ZM211.915 36.544C211.915 30.6754 209.583 26.8514 206.063 24.8182C202.957 23.0242 199.554 23.04 198.267 23.04V31.04C199.571 31.04 200.992 31.1278 202.062 31.7457C202.718 32.1246 203.915 33.0526 203.915 36.544H211.915ZM198.267 23.04H165.147V31.04H198.267V23.04ZM178.107 49.616H185.019V41.616H178.107V49.616ZM181.019 45.616V86.944H189.019V45.616H181.019ZM185.019 82.944H178.107V90.944H185.019V82.944ZM182.107 86.944V45.616H174.107V86.944H182.107Z" fill="black"/>
<path d="M324.105 50.0998V48.0416L340.493 36.6071H324.105V34H345.879V36.0582L329.422 47.4927H345.879V50.0998H324.105Z" fill="black"/>
<path d="M347.082 50.0998V34H363.746V36.3784H350.143V40.4033H363.055V42.7817H350.143V47.7214H363.746V50.0998H347.082Z" fill="black"/>
<path d="M327.557 71.7872V77.7332H324.496V61.6334H337.777C338.698 61.6334 339.48 61.7325 340.125 61.9307C340.769 62.1137 341.291 62.3805 341.69 62.7311C342.104 63.0665 342.403 63.4705 342.588 63.9432C342.772 64.4158 342.864 64.9418 342.864 65.5211V67.8995C342.864 68.4789 342.772 69.0048 342.588 69.4775C342.403 69.9501 342.104 70.3617 341.69 70.7124C341.291 71.0478 340.769 71.3146 340.125 71.5128C339.48 71.6958 338.698 71.7872 337.777 71.7872H327.557ZM339.802 65.4983C339.802 64.5073 339.127 64.0118 337.777 64.0118H327.557V69.4089H337.777C339.127 69.4089 339.802 68.9134 339.802 67.9224V65.4983Z" fill="black"/>
<path d="M360.164 77.7332V70.4151H346.906V77.7332H343.845V61.6334H346.906V68.0367H360.164V61.6334H363.225V77.7332H360.164Z" fill="black"/>
<path d="M333.404 105.367V98.8261L323 89.2668H326.913L334.923 96.6306L342.933 89.2668H346.8L336.465 98.8261V105.367H333.404Z" fill="black"/>
<path d="M362.547 105.367L358.75 98.1857H350.21V105.367H347.149V89.2668H360.913C361.834 89.2668 362.616 89.3659 363.261 89.5641C363.905 89.7471 364.427 90.0139 364.826 90.3645C365.24 90.6999 365.54 91.1039 365.724 91.5766C365.908 92.0492 366 92.5752 366 93.1545V94.298C366 95.3347 365.693 96.2037 365.079 96.9051C364.466 97.5911 363.437 98.0028 361.995 98.14L365.816 105.367H362.547ZM362.939 93.1317C362.939 92.1407 362.264 91.6452 360.913 91.6452H350.21V95.8073H360.913C362.264 95.8073 362.939 95.3118 362.939 94.3209V93.1317Z" fill="black"/>
<path d="M329.514 133C328.593 133 327.811 132.909 327.166 132.726C326.522 132.527 325.992 132.261 325.578 131.925C325.179 131.574 324.887 131.163 324.703 130.69C324.519 130.218 324.427 129.692 324.427 129.112V116.9H327.488V129.135C327.488 130.126 328.163 130.622 329.514 130.622H339.572C340.923 130.622 341.598 130.126 341.598 129.135V116.9H344.659V129.112C344.659 129.692 344.598 130.218 344.475 130.69C344.368 131.163 344.145 131.574 343.807 131.925C343.485 132.261 343.033 132.527 342.449 132.726C341.882 132.909 341.137 133 340.217 133H329.514Z" fill="black"/>
<path d="M346.637 133V130.622H360.723C362.074 130.622 362.749 130.126 362.749 129.135V127.1C362.749 126.109 362.074 125.613 360.723 125.613H351.194C350.274 125.613 349.491 125.522 348.847 125.339C348.202 125.141 347.673 124.874 347.258 124.538C346.859 124.188 346.568 123.776 346.384 123.304C346.2 122.831 346.108 122.305 346.108 121.726V120.788C346.108 120.209 346.2 119.683 346.384 119.21C346.568 118.737 346.859 118.333 347.258 117.998C347.673 117.647 348.202 117.38 348.847 117.198C349.491 116.999 350.274 116.9 351.194 116.9H364.912V119.279H351.194C349.844 119.279 349.169 119.774 349.169 120.765V121.748C349.169 122.739 349.844 123.235 351.194 123.235H360.723C361.644 123.235 362.427 123.334 363.071 123.532C363.716 123.715 364.237 123.982 364.636 124.333C365.051 124.668 365.35 125.072 365.534 125.545C365.718 126.017 365.81 126.543 365.81 127.123V129.112C365.81 129.692 365.718 130.218 365.534 130.69C365.35 131.163 365.051 131.574 364.636 131.925C364.237 132.261 363.716 132.527 363.071 132.726C362.427 132.909 361.644 133 360.723 133H346.637Z" fill="black"/>
<path fill-rule="evenodd" clip-rule="evenodd" d="M373 28.8983H318V137.102H373V28.8983ZM315 26V140H376V26H315Z" fill="black"/>
<path d="M234 103.344V78H254.628C256.02 78 257.208 78.132 258.192 78.396C259.2 78.636 260.004 78.996 260.604 79.476C261.228 79.932 261.684 80.508 261.972 81.204C262.26 81.876 262.404 82.632 262.404 83.472V85.812C262.404 86.916 262.128 87.852 261.576 88.62C261.048 89.364 260.328 89.832 259.416 90.024C260.376 90.288 261.168 90.744 261.792 91.392C262.416 92.016 262.728 92.94 262.728 94.164V97.872C262.728 98.592 262.596 99.288 262.332 99.96C262.092 100.608 261.66 101.184 261.036 101.688C260.436 102.192 259.62 102.6 258.588 102.912C257.556 103.2 256.26 103.344 254.7 103.344H234ZM257.94 94.236C257.94 93.444 257.64 92.892 257.04 92.58C256.44 92.244 255.66 92.076 254.7 92.076H238.788V99.6H254.7C255.66 99.6 256.44 99.42 257.04 99.06C257.64 98.7 257.94 98.004 257.94 96.972V94.236ZM257.616 83.724C257.616 83.028 257.4 82.524 256.968 82.212C256.536 81.9 255.756 81.744 254.628 81.744H238.788V88.332H254.628C255.756 88.332 256.536 88.176 256.968 87.864C257.4 87.552 257.616 87.048 257.616 86.352V83.724Z" fill="black"/>
<path d="M277.737 103.344V93.048L261.465 78H267.585L280.113 89.592L292.641 78H298.689L282.525 93.048V103.344H277.737Z" fill="black"/>
</svg>
