<svg width="377" height="180" viewBox="0 0 377 180" fill="none" xmlns="http://www.w3.org/2000/svg">
<path d="M28.216 30.92C28.216 29.336 26.92 28.04 25.336 28.04H8.2C6.616 28.04 5.32 29.336 5.32 30.92V172.04C5.32 173.624 6.616 174.92 8.2 174.92H58.024C59.608 174.92 60.904 173.624 60.904 172.04V157.784C60.904 156.2 59.608 154.904 58.024 154.904H28.216V30.92ZM36.82 146.12C36.82 147.704 38.116 149 39.7 149H81.748C83.332 149 84.628 147.704 84.628 146.12V133.304C84.484 131.72 83.188 130.424 81.604 130.424H59.716V96.296H74.548C76.132 96.296 77.428 95 77.428 93.416V79.304C77.428 77.72 76.132 76.424 74.548 76.424H59.716V46.616H81.604C83.188 46.616 84.484 45.32 84.484 43.736V30.92C84.484 29.192 83.188 28.04 81.748 28.04H39.7C38.116 28.04 36.82 29.336 36.82 30.92V146.12ZM96.0906 28.04C94.5066 28.04 93.2106 29.336 93.2106 30.92V146.12C93.2106 147.704 94.5066 149 96.0906 149H113.227C114.811 149 116.107 147.704 116.107 146.12V30.92C116.107 29.336 114.811 28.04 113.227 28.04H96.0906ZM96.0546 5C94.4706 5 93.1746 6.29599 93.1746 7.88V20.696C93.1746 22.28 94.4706 23.576 96.0546 23.576H124.711V146.12C124.711 147.704 126.007 149 127.591 149H144.583C146.167 149 147.463 147.704 147.463 146.12V23.576H176.119C177.703 23.576 178.999 22.28 178.999 20.696V7.88C178.999 6.29599 177.703 5 176.119 5H96.0546ZM166.147 28.04C163.555 28.04 156.211 28.184 156.211 38.12V146.12C156.211 147.704 157.507 149 159.091 149H176.227C177.811 149 179.107 147.704 179.107 146.12V106.376H186.019V146.12C186.019 147.704 187.315 149 188.899 149H206.035C207.619 149 208.915 147.704 208.915 146.12V37.544C208.915 28.184 201.859 28.04 199.267 28.04H166.147ZM179.107 46.616H186.019V87.944H179.107V46.616Z" fill="#873EFF"/>
<path d="M28.216 154.904H23.216V159.904H28.216V154.904ZM33.216 30.92C33.216 26.5746 29.6814 23.04 25.336 23.04V33.04C24.1586 33.04 23.216 32.0974 23.216 30.92H33.216ZM25.336 23.04H8.2V33.04H25.336V23.04ZM8.2 23.04C3.85458 23.04 0.32 26.5746 0.32 30.92H10.32C10.32 32.0974 9.37742 33.04 8.2 33.04V23.04ZM0.32 30.92V172.04H10.32V30.92H0.32ZM0.32 172.04C0.32 176.385 3.85458 179.92 8.2 179.92V169.92C9.37742 169.92 10.32 170.863 10.32 172.04H0.32ZM8.2 179.92H58.024V169.92H8.2V179.92ZM58.024 179.92C62.3694 179.92 65.904 176.385 65.904 172.04H55.904C55.904 170.863 56.8466 169.92 58.024 169.92V179.92ZM65.904 172.04V157.784H55.904V172.04H65.904ZM65.904 157.784C65.904 153.439 62.3694 149.904 58.024 149.904V159.904C56.8466 159.904 55.904 158.961 55.904 157.784H65.904ZM58.024 149.904H28.216V159.904H58.024V149.904ZM33.216 154.904V30.92H23.216V154.904H33.216ZM84.628 133.304H89.628V133.077L89.6075 132.851L84.628 133.304ZM59.716 130.424H54.716V135.424H59.716V130.424ZM59.716 96.296V91.296H54.716V96.296H59.716ZM59.716 76.424H54.716V81.424H59.716V76.424ZM59.716 46.616V41.616H54.716V46.616H59.716ZM31.82 146.12C31.82 150.465 35.3546 154 39.7 154V144C40.8774 144 41.82 144.943 41.82 146.12H31.82ZM39.7 154H81.748V144H39.7V154ZM81.748 154C86.0934 154 89.628 150.465 89.628 146.12H79.628C79.628 144.943 80.5706 144 81.748 144V154ZM89.628 146.12V133.304H79.628V146.12H89.628ZM89.6075 132.851C89.2529 128.951 86.0262 125.424 81.604 125.424V135.424C80.3498 135.424 79.7151 134.489 79.6485 133.757L89.6075 132.851ZM81.604 125.424H59.716V135.424H81.604V125.424ZM64.716 130.424V96.296H54.716V130.424H64.716ZM59.716 101.296H74.548V91.296H59.716V101.296ZM74.548 101.296C78.8934 101.296 82.428 97.7614 82.428 93.416H72.428C72.428 92.2386 73.3706 91.296 74.548 91.296V101.296ZM82.428 93.416V79.304H72.428V93.416H82.428ZM82.428 79.304C82.428 74.9586 78.8934 71.424 74.548 71.424V81.424C73.3706 81.424 72.428 80.4814 72.428 79.304H82.428ZM74.548 71.424H59.716V81.424H74.548V71.424ZM64.716 76.424V46.616H54.716V76.424H64.716ZM59.716 51.616H81.604V41.616H59.716V51.616ZM81.604 51.616C85.9494 51.616 89.484 48.0814 89.484 43.736H79.484C79.484 42.5586 80.4266 41.616 81.604 41.616V51.616ZM89.484 43.736V30.92H79.484V43.736H89.484ZM89.484 30.92C89.484 26.4306 85.9494 23.04 81.748 23.04V33.04C81.1269 33.04 80.5435 32.7905 80.1205 32.3675C79.6696 31.9167 79.484 31.3576 79.484 30.92H89.484ZM81.748 23.04H39.7V33.04H81.748V23.04ZM39.7 23.04C35.3546 23.04 31.82 26.5746 31.82 30.92H41.82C41.82 32.0974 40.8774 33.04 39.7 33.04V23.04ZM31.82 30.92V146.12H41.82V30.92H31.82ZM96.0906 23.04C91.7452 23.04 88.2106 26.5746 88.2106 30.92H98.2106C98.2106 32.0974 97.268 33.04 96.0906 33.04V23.04ZM88.2106 30.92V146.12H98.2106V30.92H88.2106ZM88.2106 146.12C88.2106 150.465 91.7452 154 96.0906 154V144C97.268 144 98.2106 144.943 98.2106 146.12H88.2106ZM96.0906 154H113.227V144H96.0906V154ZM113.227 154C117.572 154 121.107 150.465 121.107 146.12H111.107C111.107 144.943 112.049 144 113.227 144V154ZM121.107 146.12V30.92H111.107V146.12H121.107ZM121.107 30.92C121.107 26.5746 117.572 23.04 113.227 23.04V33.04C112.049 33.04 111.107 32.0974 111.107 30.92H121.107ZM113.227 23.04H96.0906V33.04H113.227V23.04ZM124.711 23.576H129.711V18.576H124.711V23.576ZM147.463 23.576V18.576H142.463V23.576H147.463ZM96.0546 0C91.7092 0 88.1746 3.53456 88.1746 7.88H98.1746C98.1746 9.05743 97.232 10 96.0546 10V0ZM88.1746 7.88V20.696H98.1746V7.88H88.1746ZM88.1746 20.696C88.1746 25.0414 91.7092 28.576 96.0546 28.576V18.576C97.232 18.576 98.1746 19.5186 98.1746 20.696H88.1746ZM96.0546 28.576H124.711V18.576H96.0546V28.576ZM119.711 23.576V146.12H129.711V23.576H119.711ZM119.711 146.12C119.711 150.465 123.245 154 127.591 154V144C128.768 144 129.711 144.943 129.711 146.12H119.711ZM127.591 154H144.583V144H127.591V154ZM144.583 154C148.928 154 152.463 150.465 152.463 146.12H142.463C142.463 144.943 143.405 144 144.583 144V154ZM152.463 146.12V23.576H142.463V146.12H152.463ZM147.463 28.576H176.119V18.576H147.463V28.576ZM176.119 28.576C180.464 28.576 183.999 25.0414 183.999 20.696H173.999C173.999 19.5186 174.941 18.576 176.119 18.576V28.576ZM183.999 20.696V7.88H173.999V20.696H183.999ZM183.999 7.88C183.999 3.53456 180.464 0 176.119 0V10C174.941 10 173.999 9.05742 173.999 7.88H183.999ZM176.119 0H96.0546V10H176.119V0ZM179.107 106.376V101.376H174.107V106.376H179.107ZM186.019 106.376H191.019V101.376H186.019V106.376ZM179.107 46.616V41.616H174.107V46.616H179.107ZM186.019 46.616H191.019V41.616H186.019V46.616ZM186.019 87.944V92.944H191.019V87.944H186.019ZM179.107 87.944H174.107V92.944H179.107V87.944ZM166.147 23.04C164.849 23.04 161.107 23.0117 157.661 25.0508C153.717 27.3843 151.211 31.7131 151.211 38.12H161.211C161.211 36.2459 161.556 35.1992 161.841 34.6486C162.106 34.1347 162.418 33.8555 162.753 33.6572C163.626 33.1403 164.852 33.04 166.147 33.04V23.04ZM151.211 38.12V146.12H161.211V38.12H151.211ZM151.211 146.12C151.211 150.465 154.745 154 159.091 154V144C160.268 144 161.211 144.943 161.211 146.12H151.211ZM159.091 154H176.227V144H159.091V154ZM176.227 154C180.572 154 184.107 150.465 184.107 146.12H174.107C174.107 144.943 175.049 144 176.227 144V154ZM184.107 146.12V106.376H174.107V146.12H184.107ZM179.107 111.376H186.019V101.376H179.107V111.376ZM181.019 106.376V146.12H191.019V106.376H181.019ZM181.019 146.12C181.019 150.465 184.553 154 188.899 154V144C190.076 144 191.019 144.943 191.019 146.12H181.019ZM188.899 154H206.035V144H188.899V154ZM206.035 154C210.38 154 213.915 150.465 213.915 146.12H203.915C203.915 144.943 204.857 144 206.035 144V154ZM213.915 146.12V37.544H203.915V146.12H213.915ZM213.915 37.544C213.915 31.3782 211.441 27.1922 207.563 24.9523C204.203 23.0113 200.552 23.04 199.267 23.04V33.04C200.573 33.04 201.746 33.1407 202.562 33.6117C202.864 33.7863 203.126 34.0198 203.35 34.4445C203.592 34.9038 203.915 35.8277 203.915 37.544H213.915ZM199.267 23.04H166.147V33.04H199.267V23.04ZM179.107 51.616H186.019V41.616H179.107V51.616ZM181.019 46.616V87.944H191.019V46.616H181.019ZM186.019 82.944H179.107V92.944H186.019V82.944ZM184.107 87.944V46.616H174.107V87.944H184.107Z" fill="black"/>
<path d="M325.105 51.0998V49.0416L341.493 37.6071H325.105V35H346.879V37.0582L330.422 48.4927H346.879V51.0998H325.105Z" fill="black"/>
<path d="M348.082 51.0998V35H364.746V37.3784H351.143V41.4033H364.055V43.7817H351.143V48.7214H364.746V51.0998H348.082Z" fill="black"/>
<path d="M328.557 72.7872V78.7332H325.496V62.6334H338.777C339.698 62.6334 340.48 62.7325 341.125 62.9307C341.769 63.1137 342.291 63.3805 342.69 63.7311C343.104 64.0665 343.403 64.4705 343.588 64.9432C343.772 65.4158 343.864 65.9418 343.864 66.5211V68.8995C343.864 69.4789 343.772 70.0048 343.588 70.4775C343.403 70.9501 343.104 71.3617 342.69 71.7124C342.291 72.0478 341.769 72.3146 341.125 72.5128C340.48 72.6958 339.698 72.7872 338.777 72.7872H328.557ZM340.802 66.4983C340.802 65.5073 340.127 65.0118 338.777 65.0118H328.557V70.4089H338.777C340.127 70.4089 340.802 69.9134 340.802 68.9224V66.4983Z" fill="black"/>
<path d="M361.164 78.7332V71.4151H347.906V78.7332H344.845V62.6334H347.906V69.0367H361.164V62.6334H364.225V78.7332H361.164Z" fill="black"/>
<path d="M334.404 106.367V99.8261L324 90.2668H327.913L335.923 97.6306L343.933 90.2668H347.8L337.465 99.8261V106.367H334.404Z" fill="black"/>
<path d="M363.547 106.367L359.75 99.1857H351.21V106.367H348.149V90.2668H361.913C362.834 90.2668 363.616 90.3659 364.261 90.5641C364.905 90.7471 365.427 91.0139 365.826 91.3645C366.24 91.6999 366.54 92.1039 366.724 92.5766C366.908 93.0492 367 93.5752 367 94.1545V95.298C367 96.3347 366.693 97.2037 366.079 97.9051C365.466 98.5911 364.437 99.0028 362.995 99.14L366.816 106.367H363.547ZM363.939 94.1317C363.939 93.1407 363.264 92.6452 361.913 92.6452H351.21V96.8073H361.913C363.264 96.8073 363.939 96.3118 363.939 95.3209V94.1317Z" fill="black"/>
<path d="M330.514 134C329.593 134 328.811 133.909 328.166 133.726C327.522 133.527 326.992 133.261 326.578 132.925C326.179 132.574 325.887 132.163 325.703 131.69C325.519 131.218 325.427 130.692 325.427 130.112V117.9H328.488V130.135C328.488 131.126 329.163 131.622 330.514 131.622H340.572C341.923 131.622 342.598 131.126 342.598 130.135V117.9H345.659V130.112C345.659 130.692 345.598 131.218 345.475 131.69C345.368 132.163 345.145 132.574 344.807 132.925C344.485 133.261 344.033 133.527 343.449 133.726C342.882 133.909 342.137 134 341.217 134H330.514Z" fill="black"/>
<path d="M347.637 134V131.622H361.723C363.074 131.622 363.749 131.126 363.749 130.135V128.1C363.749 127.109 363.074 126.613 361.723 126.613H352.194C351.274 126.613 350.491 126.522 349.847 126.339C349.202 126.141 348.673 125.874 348.258 125.538C347.859 125.188 347.568 124.776 347.384 124.304C347.2 123.831 347.108 123.305 347.108 122.726V121.788C347.108 121.209 347.2 120.683 347.384 120.21C347.568 119.737 347.859 119.333 348.258 118.998C348.673 118.647 349.202 118.38 349.847 118.198C350.491 117.999 351.274 117.9 352.194 117.9H365.912V120.279H352.194C350.844 120.279 350.169 120.774 350.169 121.765V122.748C350.169 123.739 350.844 124.235 352.194 124.235H361.723C362.644 124.235 363.427 124.334 364.071 124.532C364.716 124.715 365.237 124.982 365.636 125.333C366.051 125.668 366.35 126.072 366.534 126.545C366.718 127.017 366.81 127.543 366.81 128.123V130.112C366.81 130.692 366.718 131.218 366.534 131.69C366.35 132.163 366.051 132.574 365.636 132.925C365.237 133.261 364.716 133.527 364.071 133.726C363.427 133.909 362.644 134 361.723 134H347.637Z" fill="black"/>
<path fill-rule="evenodd" clip-rule="evenodd" d="M374 29.8983H319V138.102H374V29.8983ZM316 27V141H377V27H316Z" fill="black"/>
<path d="M235 104.344V79H255.628C257.02 79 258.208 79.132 259.192 79.396C260.2 79.636 261.004 79.996 261.604 80.476C262.228 80.932 262.684 81.508 262.972 82.204C263.26 82.876 263.404 83.632 263.404 84.472V86.812C263.404 87.916 263.128 88.852 262.576 89.62C262.048 90.364 261.328 90.832 260.416 91.024C261.376 91.288 262.168 91.744 262.792 92.392C263.416 93.016 263.728 93.94 263.728 95.164V98.872C263.728 99.592 263.596 100.288 263.332 100.96C263.092 101.608 262.66 102.184 262.036 102.688C261.436 103.192 260.62 103.6 259.588 103.912C258.556 104.2 257.26 104.344 255.7 104.344H235ZM258.94 95.236C258.94 94.444 258.64 93.892 258.04 93.58C257.44 93.244 256.66 93.076 255.7 93.076H239.788V100.6H255.7C256.66 100.6 257.44 100.42 258.04 100.06C258.64 99.7 258.94 99.004 258.94 97.972V95.236ZM258.616 84.724C258.616 84.028 258.4 83.524 257.968 83.212C257.536 82.9 256.756 82.744 255.628 82.744H239.788V89.332H255.628C256.756 89.332 257.536 89.176 257.968 88.864C258.4 88.552 258.616 88.048 258.616 87.352V84.724Z" fill="black"/>
<path d="M278.737 104.344V94.048L262.465 79H268.585L281.113 90.592L293.641 79H299.689L283.525 94.048V104.344H278.737Z" fill="black"/>
</svg>
